<svg t="1772455379585" class="icon" viewBox="0 0 1024 1024" version="1.1" xmlns="http://www.w3.org/2000/svg" p-id="6311" width="24" height="24"><path fill="currentColor" d="M925.04 856.92H98.48c-18.9 0-34.48-16.01-34.48-35.7V642.94c0-58.85 46.49-106.99 103.32-106.99h220.43c-6.9-42.85-27.58-83.85-56.83-119.43-39.59-46.42-60.28-105.27-60.28-165.85 0-67.72 25.8-131.98 74.07-180.12C392.98 22.4 454.93-0.74 522.1 0.98c124.01 5.3 229 115.86 230.78 244.27 1.67 64.15-22.35 126.57-63.73 174.71-29.25 32.14-46.49 71.29-53.39 115.98H856.2c56.84 0 103.32 48.14 103.32 106.99v178.28c0 19.7-15.45 35.71-34.48 35.71z m-792.2-71.29h757.72v-142.7c0-19.58-15.45-35.71-34.48-35.71H597.84c-18.9 0-34.48-16-34.48-35.7 0-74.86 25.8-146.27 74.07-199.7 31.03-33.86 46.49-78.43 46.49-124.85-1.67-92.71-75.74-171.26-165.39-174.71-48.27-1.73-92.98 16-125.67 49.99-34.48 33.86-53.39 80.27-53.39 128.41 0 42.85 15.46 85.57 43.04 117.7 49.94 58.85 77.52 130.14 77.52 203.28 0 19.57-15.46 35.7-34.48 35.7H167.32c-18.9 0-34.48 16-34.48 35.7v142.59zM960 994v-23c0-16.5-13.5-30-30-30H94c-16.5 0-30 13.5-30 30v23c0 16.5 13.5 30 30 30h836c16.5 0 30-13.5 30-30z" p-id="6312"></path></svg>