<svg t="1767162445000" class="icon" viewBox="0 0 1024 1024" version="1.1" xmlns="http://www.w3.org/2000/svg" p-id="23682" width="24" height="24"><path fill="currentColor" d="M512 85.333333c-236.074667 0-426.666667 190.592-426.666667 426.666667s190.592 426.666667 426.666667 426.666667 426.666667-190.592 426.666667-426.666667S748.074667 85.333333 512 85.333333zm0 768c-189.013333 0-341.333333-152.32-341.333333-341.333333s152.32-341.333333 341.333333-341.333333 341.333333 152.32 341.333333 341.333333-152.32 341.333333-341.333333 341.333333z" p-id="23683"></path><path fill="currentColor" d="M746.666667 277.333333L277.333333 746.666667a32 32 0 1 1-45.258666-45.258666l469.333333-469.333333a32 32 0 0 1 45.258666 45.258666z" p-id="23684"></path></svg>